<?xml version="1.0" encoding="UTF-8"?>
<svg xmlns="http://www.w3.org/2000/svg" xmlns:xlink="http://www.w3.org/1999/xlink" width="16px" height="16px" viewBox="0 0 16 16" version="1.1">
<g id="surface1">
<path style="fill:none;stroke-width:1.5;stroke-linecap:round;stroke-linejoin:round;stroke:rgb(0%,0%,0%);stroke-opacity:1;stroke-miterlimit:4;" d="M 19.5 14.25 L 19.5 11.625 C 19.5 9.761719 17.988281 8.25 16.125 8.25 L 14.625 8.25 C 14.003906 8.25 13.5 7.746094 13.5 7.125 L 13.5 5.625 C 13.5 3.761719 11.988281 2.25 10.125 2.25 L 8.25 2.25 M 13.482422 15.732422 L 15 17.25 M 10.5 2.25 L 5.625 2.25 C 5.003906 2.25 4.5 2.753906 4.5 3.375 L 4.5 19.875 C 4.5 20.496094 5.003906 21 5.625 21 L 18.375 21 C 18.996094 21 19.5 20.496094 19.5 19.875 L 19.5 11.25 C 19.5 6.28125 15.46875 2.25 10.5 2.25 Z M 14.25 13.875 C 14.25 15.322266 13.072266 16.5 11.625 16.5 C 10.177734 16.5 9 15.322266 9 13.875 C 9 12.427734 10.177734 11.25 11.625 11.25 C 13.072266 11.25 14.25 12.427734 14.25 13.875 Z M 14.25 13.875 " transform="matrix(0.666667,0,0,0.666667,0,0)"/>
</g>
</svg>
