<?xml version="1.0" encoding="UTF-8"?>
<svg xmlns="http://www.w3.org/2000/svg" xmlns:xlink="http://www.w3.org/1999/xlink" width="16px" height="16px" viewBox="0 0 16 16" version="1.1">
<g id="surface1">
<path style="fill:none;stroke-width:1.5;stroke-linecap:round;stroke-linejoin:round;stroke:rgb(0%,0%,0%);stroke-opacity:1;stroke-miterlimit:4;" d="M 2.25 12 L 11.203125 3.046875 C 11.642578 2.607422 12.357422 2.607422 12.796875 3.046875 L 21.75 12 M 4.5 9.75 L 4.5 19.875 C 4.5 20.496094 5.003906 21 5.625 21 L 9.75 21 L 9.75 16.125 C 9.75 15.503906 10.253906 15 10.875 15 L 13.125 15 C 13.746094 15 14.25 15.503906 14.25 16.125 L 14.25 21 L 18.375 21 C 18.996094 21 19.5 20.496094 19.5 19.875 L 19.5 9.75 M 8.25 21 L 16.5 21 " transform="matrix(0.666667,0,0,0.666667,0,0)"/>
</g>
</svg>
